<svg xmlns="http://www.w3.org/2000/svg" width="1400" height="840" viewBox="0 0 1400 840" role="img" aria-labelledby="title desc">
<title>Florida frente a otros mercados</title><desc>Imagen editorial comparativa de mercados inmobiliarios.</desc><defs><linearGradient id="g" x1="0" x2="1" y1="0" y2="1"><stop offset="0" stop-color="#10192A"/><stop offset="1" stop-color="#07101e"/></linearGradient><linearGradient id="gold" x1="0" x2="1"><stop offset="0" stop-color="#C59854"/><stop offset="1" stop-color="#F1D28F"/></linearGradient><filter id="s" x="-20%" y="-20%" width="140%" height="140%"><feDropShadow dx="0" dy="18" stdDeviation="22" flood-color="#000" flood-opacity=".22"/></filter></defs><rect width="1400" height="840" fill="url(#g)"/><circle cx="1130" cy="130" r="290" fill="#C59854" opacity=".10"/><circle cx="210" cy="690" r="260" fill="#F1D28F" opacity=".08"/><path d="M0 655 C260 590 400 715 660 650 C930 582 1110 620 1400 548 L1400 840 L0 840 Z" fill="#fff" opacity=".08"/><g filter="url(#s)"><path d="M170 580 C310 470 430 612 580 492 C716 385 820 430 910 315 C1015 178 1140 216 1240 158" fill="none" stroke="#F1D28F" stroke-width="20" stroke-linecap="round"/><circle cx="580" cy="492" r="24" fill="#fff"/><circle cx="910" cy="315" r="24" fill="#fff"/><circle cx="1240" cy="158" r="24" fill="#fff"/><rect x="185" y="640" width="210" height="16" rx="8" fill="#F1D28F" opacity=".55"/><rect x="430" y="640" width="210" height="16" rx="8" fill="#F1D28F" opacity=".55"/><rect x="675" y="640" width="210" height="16" rx="8" fill="#F1D28F" opacity=".55"/><rect x="920" y="640" width="210" height="16" rx="8" fill="#F1D28F" opacity=".55"/></g><text x="115" y="210" fill="#fff" font-family="Georgia,serif" font-size="80" font-weight="700">Florida vs otros mercados</text><text x="118" y="272" fill="#d7dbe4" font-family="Montserrat,Arial,sans-serif" font-size="31">Ubicación, demanda, liquidez y estrategia de largo plazo.</text><rect x="86" y="86" width="1228" height="668" rx="42" fill="none" stroke="#F1D28F" stroke-opacity=".30" stroke-width="2"/><text x="102" y="705" fill="#F1D28F" font-family="Montserrat,Arial,sans-serif" font-size="24" font-weight="700" letter-spacing="4">INVERSIONES DAVAR</text></svg>